<svg xmlns="http://www.w3.org/2000/svg" viewBox="0 0 120 120" fill="none">
  <defs>
    <linearGradient id="bio-bg" x1="0" y1="0" x2="120" y2="120">
      <stop offset="0%" stop-color="#064e3b"/>
      <stop offset="100%" stop-color="#0b1f3a"/>
    </linearGradient>
    <linearGradient id="bio-gold" x1="0" y1="0" x2="1" y2="1">
      <stop offset="0%" stop-color="#e8c84a"/>
      <stop offset="100%" stop-color="#d4af37"/>
    </linearGradient>
  </defs>
  <circle cx="60" cy="60" r="56" fill="url(#bio-bg)" stroke="#d4af37" stroke-width="2"/>
  <path d="M60 22 C42 22 38 42 38 52 C38 62 48 68 60 68 C72 68 82 62 82 52 C82 42 78 22 60 22Z" stroke="url(#bio-gold)" stroke-width="2.5" fill="none"/>
  <path d="M60 68 C42 68 38 78 38 88 C38 98 48 98 60 98 C72 98 82 98 82 88 C82 78 78 68 60 68Z" stroke="url(#bio-gold)" stroke-width="2.5" fill="none"/>
  <line x1="48" y1="38" x2="72" y2="62" stroke="#fff" stroke-width="2" stroke-linecap="round"/>
  <line x1="72" y1="38" x2="48" y2="62" stroke="#fff" stroke-width="2" stroke-linecap="round"/>
  <line x1="48" y1="78" x2="72" y2="92" stroke="#fff" stroke-width="2" stroke-linecap="round"/>
  <line x1="72" y1="78" x2="48" y2="92" stroke="#fff" stroke-width="2" stroke-linecap="round"/>
  <circle cx="48" cy="38" r="3" fill="#e8c84a"/>
  <circle cx="72" cy="62" r="3" fill="#e8c84a"/>
  <circle cx="48" cy="78" r="3" fill="#e8c84a"/>
  <circle cx="72" cy="92" r="3" fill="#e8c84a"/>
</svg>
