<svg xmlns="http://www.w3.org/2000/svg" viewBox="0 0 120 120" fill="none">
  <defs>
    <linearGradient id="chem-bg" x1="0" y1="0" x2="120" y2="120">
      <stop offset="0%" stop-color="#4a1d6a"/>
      <stop offset="100%" stop-color="#0b1f3a"/>
    </linearGradient>
    <linearGradient id="chem-gold" x1="0" y1="0" x2="1" y2="1">
      <stop offset="0%" stop-color="#e8c84a"/>
      <stop offset="100%" stop-color="#d4af37"/>
    </linearGradient>
    <linearGradient id="chem-liquid" x1="0" y1="0" x2="0" y2="1">
      <stop offset="0%" stop-color="#7c3aed" stop-opacity="0.8"/>
      <stop offset="100%" stop-color="#1e40af" stop-opacity="0.9"/>
    </linearGradient>
  </defs>
  <circle cx="60" cy="60" r="56" fill="url(#chem-bg)" stroke="#d4af37" stroke-width="2"/>
  <path d="M42 32 L52 32 L68 72 L78 72 L62 32" stroke="url(#chem-gold)" stroke-width="2.5" fill="none" stroke-linejoin="round"/>
  <path d="M48 72 L72 72 L68 88 L52 88 Z" fill="url(#chem-liquid)" stroke="url(#chem-gold)" stroke-width="2"/>
  <circle cx="38" cy="38" r="5" fill="none" stroke="#fff" stroke-width="1.5"/>
  <circle cx="38" cy="38" r="2" fill="#e8c84a"/>
  <circle cx="82" cy="42" r="4" fill="none" stroke="#fff" stroke-width="1.5"/>
  <line x1="82" y1="42" x2="88" y2="36" stroke="#fff" stroke-width="1.5"/>
  <line x1="82" y1="42" x2="76" y2="36" stroke="#fff" stroke-width="1.5"/>
  <circle cx="78" cy="78" r="3" fill="#e8c84a"/>
  <circle cx="88" cy="72" r="2" fill="#fff"/>
  <path d="M44 80 Q50 76 56 80" stroke="#e8c84a" stroke-width="1.5" fill="none" opacity="0.6"/>
</svg>
